<?xml version="1.0" encoding="iso-8859-1"?>
<!-- Generator: Adobe Illustrator 24.0.3, SVG Export Plug-In . SVG Version: 6.00 Build 0)  -->
<svg version="1.1" id="Layer_1" xmlns="http://www.w3.org/2000/svg" xmlns:xlink="http://www.w3.org/1999/xlink" x="0px" y="0px"
	 viewBox="0 0 200 200" style="enable-background:new 0 0 200 200;" xml:space="preserve">
<g>
	<path style="fill:#FECC07;" d="M24.762,110.495L11.553,123.7V79.147L24.762,65.94V110.495z M24.762,121.367l-13.209,13.209v57.929
		h64.055l13.209-13.21H24.762V121.367z M24.762,33.002h25.307l6.61-6.608h-38.52v38.514l6.603-6.607V33.002z M162.688,132.095
		h-2.716v36.11h-16.431l9.831-9.833l-1.921-1.916L139.7,168.205h-15.297v2.721h12.575l-8.351,8.349l1.923,1.923l10.27-10.272h19.945
		l12.47,12.474h1.923v-1.928l-12.471-12.473V132.095z M85.172,43.115H32.614v52.561h2.715V45.833h49.844V43.115z M171.059,53.559
		l13.211-13.218V19.788H70.91L57.7,33.002h113.359V53.559z M136.869,147.198l57.016-57.017l-1.922-1.924l-57.012,57.016
		L136.869,147.198z M48.189,130.157v-0.89c0-0.703-0.185-1.237-0.557-1.61c-0.371-0.369-0.912-0.555-1.629-0.555h-1.833v5.645H40.75
		v-14.732h5.131c1.708,0,3.06,0.395,4.059,1.182c0.996,0.793,1.496,1.871,1.496,3.24c0,0.763-0.2,1.414-0.603,1.965
		c-0.401,0.542-0.989,0.988-1.773,1.335c0.905,0.255,1.551,0.682,1.947,1.278c0.394,0.595,0.59,1.342,0.59,2.233v0.927
		c0,0.388,0.059,0.824,0.173,1.317c0.115,0.493,0.312,0.843,0.598,1.052v0.203h-3.531c-0.272-0.207-0.446-0.573-0.527-1.101
		C48.232,131.121,48.189,130.623,48.189,130.157z M48.029,122.649c0-0.601-0.189-1.083-0.564-1.452
		c-0.375-0.368-0.901-0.551-1.584-0.551h-1.71v3.826h1.732c0.687,0,1.214-0.159,1.577-0.471
		C47.846,123.686,48.029,123.235,48.029,122.649z M63.62,120.646v-2.632h-9.655v14.732h9.645v-2.629h-6.224v-3.675h5.191v-2.63
		h-5.191v-3.166H63.62z M77.381,127.567l-2.509-9.553h-2.578l-2.5,9.572l-0.064-0.011l-1.78-9.561h-3.471l3.388,14.732h3.219
		l2.46-9.097h0.06l2.479,9.097h3.218l3.377-14.732h-3.46l-1.781,9.553H77.381z M90.92,118.015l4.815,14.732h-3.603l-0.86-2.866
		H86.89l-0.849,2.866H82.44l4.807-14.732h1.829v0.01l0.012-0.01H90.92z M90.487,127.251l-1.377-4.572h-0.062l-1.367,4.572H90.487z
		 M107.809,131.492c0.113,0.493,0.311,0.843,0.596,1.052v0.203h-3.529c-0.269-0.207-0.445-0.573-0.526-1.101
		c-0.082-0.525-0.122-1.023-0.122-1.489v-0.89c0-0.703-0.187-1.237-0.558-1.61c-0.372-0.369-0.912-0.555-1.625-0.555h-1.835v5.645
		h-3.42v-14.732h5.13c1.706,0,3.059,0.395,4.058,1.182c0.998,0.793,1.497,1.871,1.497,3.24c0,0.763-0.2,1.414-0.604,1.965
		c-0.4,0.542-0.989,0.988-1.772,1.335c0.902,0.255,1.55,0.682,1.946,1.278c0.396,0.595,0.592,1.342,0.592,2.233v0.927
		C107.636,130.564,107.695,130.999,107.809,131.492z M104.065,122.649c0-0.601-0.188-1.083-0.562-1.452
		c-0.374-0.368-0.901-0.551-1.584-0.551h-1.711v3.826h1.732c0.686,0,1.211-0.159,1.578-0.471
		C103.882,123.686,104.065,123.235,104.065,122.649z M119.748,119.709c1.168,1.13,1.752,2.582,1.752,4.345v2.654
		c0,1.775-0.584,3.225-1.752,4.35c-1.165,1.127-2.616,1.689-4.349,1.689h-5.396v-14.732h5.396
		C117.132,118.015,118.583,118.579,119.748,119.709z M118.069,124.036c0-0.996-0.252-1.805-0.754-2.44
		c-0.502-0.635-1.141-0.95-1.917-0.95h-1.973v9.472h1.973c0.776,0,1.415-0.317,1.917-0.951c0.502-0.636,0.754-1.454,0.754-2.459
		V124.036z M129.015,132.96c1.677,0,3.017-0.365,4.031-1.099c1.009-0.732,1.516-1.744,1.516-3.038c0-1.271-0.44-2.271-1.315-2.999
		c-0.878-0.728-2.172-1.344-3.877-1.851c-1.007-0.388-1.692-0.717-2.06-0.979c-0.368-0.257-0.55-0.601-0.55-1.035
		c0-0.445,0.178-0.819,0.537-1.121c0.356-0.305,0.843-0.456,1.466-0.456c0.764,0,1.333,0.157,1.709,0.471
		c0.377,0.314,0.568,0.817,0.568,1.513h3.317l0.022-0.064c0.034-1.427-0.465-2.534-1.488-3.323
		c-1.025-0.786-2.376-1.177-4.056-1.177c-1.594,0-2.906,0.381-3.939,1.143c-1.032,0.76-1.548,1.761-1.548,2.993
		c0,1.263,0.443,2.23,1.33,2.9c0.89,0.672,2.246,1.304,4.074,1.898c0.903,0.316,1.525,0.617,1.871,0.896
		c0.345,0.279,0.518,0.683,0.518,1.209c0,0.459-0.178,0.831-0.525,1.114c-0.352,0.281-0.887,0.423-1.604,0.423
		c-0.868,0-1.515-0.177-1.935-0.539c-0.424-0.361-0.633-0.971-0.633-1.827h-3.33l-0.018,0.06c-0.034,1.688,0.525,2.922,1.684,3.71
		C125.941,132.57,127.35,132.96,129.015,132.96z"/>
	<path style="fill:#002152;" d="M184.271,109.075v83.43h-83.438l9.114-9.107h65.212v-65.217L184.271,109.075z M51.24,20.955
		l6.603-6.603H6.115v51.723l6.607-6.603V20.955H51.24z M172.216,123.435l-2.313-2.301l-57.01,57.011l2.307,2.3L172.216,123.435z
		 M121.364,160.7l-2.302-2.313L79.762,197.7l2.302,2.3L121.364,160.7z M82.365,2.305L80.058,0L57.236,22.824l2.309,2.306
		L82.365,2.305z M47.758,81.461H40.75l9.304,17.782v10.088h6.45v-9.804l9.457-18.067h-7.007l-5.551,12.172H53.29L47.758,81.461z
		 M82.728,109.331h6.814L80.43,81.461h-3.464l-0.02,0.021v-0.021h-3.466l-9.09,27.871h6.811l1.608-5.417h8.288L82.728,109.331z
		 M76.889,90.286h0.116l2.602,8.649h-5.303L76.889,90.286z M98.003,81.461h-6.474v27.871h18.433v-4.974H98.003V81.461z
		 M119.897,81.461h-6.468v27.871h18.429v-4.974h-11.961V81.461z M151.9,109.331h6.816l-9.11-27.871h-3.465l-0.023,0.021v-0.021
		h-3.46l-9.093,27.871h6.814l1.607-5.417h8.288L151.9,109.331z M146.064,90.286h0.118l2.6,8.649h-5.302L146.064,90.286z"/>
</g>
</svg>
