<?xml version="1.0" encoding="iso-8859-1"?>
<!-- Generator: Adobe Illustrator 24.0.3, SVG Export Plug-In . SVG Version: 6.00 Build 0)  -->
<svg version="1.1" id="Layer_1" xmlns="http://www.w3.org/2000/svg" xmlns:xlink="http://www.w3.org/1999/xlink" x="0px" y="0px"
	 viewBox="0 0 60 60" style="enable-background:new 0 0 60 60;" xml:space="preserve">
<g>
	<circle style="fill:#19CCA3;" cx="30" cy="30" r="30"/>
</g>
<path style="fill:#FFFFFF;" d="M49.967,27.653c0-0.369,0-0.912,0-1.039c0.001-4.268-0.053-8.537,0.024-12.804
	c0.038-2.074-1.692-3.8-3.756-3.766c-4.546,0.073-9.095,0.023-13.643,0.029c-0.654,0.001-1.309,0.006-1.961,0.052
	c-0.896,0.064-1.665,0.397-2.321,1.055c-7.105,7.124-14.223,14.236-21.337,21.352c-1.298,1.299-1.295,3.043,0.006,4.345
	c5.396,5.398,10.792,10.795,16.188,16.192c1.3,1.3,3.044,1.3,4.345,0c7.103-7.105,14.203-14.213,21.314-21.309
	c0.604-0.602,0.971-1.294,1.062-2.123c0.07-0.645,0.072-1.297,0.106-1.983C49.987,27.653,49.977,27.653,49.967,27.653z
	 M40.088,34.015c-0.29,0.113-0.571,0.262-0.871,0.334c-1.847,0.442-3.695,0.882-5.551,1.285c-0.468,0.102-0.645,0.329-0.743,0.775
	c-0.407,1.855-0.858,3.7-1.28,5.552c-0.141,0.618-0.456,1.056-1.107,1.161c-0.641,0.104-1.055-0.231-1.369-0.751
	c-1.023-1.691-2.058-3.375-3.071-5.072c-0.174-0.292-0.371-0.382-0.7-0.352c-1.939,0.175-3.884,0.304-5.82,0.508
	c-1.186,0.125-1.846-0.86-1.56-1.647c0.096-0.263,0.266-0.511,0.448-0.727c0.614-0.733,1.246-1.449,1.875-2.17
	c0.66-0.757,1.34-1.496,1.969-2.277c0.117-0.146,0.109-0.485,0.028-0.682c-0.698-1.714-1.425-3.416-2.144-5.121
	c-0.056-0.132-0.11-0.265-0.165-0.398c-0.232-0.558-0.166-1.079,0.269-1.499c0.423-0.408,0.932-0.44,1.468-0.212
	c1.791,0.761,3.59,1.505,5.372,2.286c0.432,0.189,0.699,0.123,1.049-0.192c1.135-1.024,2.314-1.999,3.476-2.993
	c0.351-0.3,0.698-0.605,1.053-0.9c0.432-0.357,0.899-0.351,1.388-0.119c0.504,0.239,0.678,0.674,0.643,1.18
	c-0.108,1.544-0.245,3.087-0.371,4.63c-0.043,0.525-0.116,1.051-0.112,1.575c0.001,0.19,0.138,0.458,0.296,0.557
	c1.691,1.053,3.402,2.074,5.101,3.114C40.53,32.393,40.697,33.299,40.088,34.015z M43.309,18.559c-1.01,0-1.828-0.819-1.828-1.828
	c0-1.01,0.819-1.828,1.828-1.828s1.828,0.819,1.828,1.828C45.138,17.74,44.319,18.559,43.309,18.559z"/>
</svg>
