<?xml version="1.0" encoding="iso-8859-1"?>
<!-- Generator: Adobe Illustrator 24.0.3, SVG Export Plug-In . SVG Version: 6.00 Build 0)  -->
<svg version="1.1" id="Layer_1" xmlns="http://www.w3.org/2000/svg" xmlns:xlink="http://www.w3.org/1999/xlink" x="0px" y="0px"
	 viewBox="0 0 40 40" style="enable-background:new 0 0 40 40;" xml:space="preserve">
<g>
	<g>
		<path style="fill:#FFFFFF;" d="M15.133,26.13c-1.988-0.054-3.669,1.586-3.721,3.632c-0.051,1.993,1.587,3.667,3.634,3.714
			c1.996,0.046,3.658-1.566,3.71-3.597C18.807,27.847,17.202,26.186,15.133,26.13z"/>
		<path style="fill:#FFFFFF;" d="M26.504,26.079c-2.032-0.015-3.697,1.644-3.715,3.703c-0.019,2.022,1.666,3.713,3.704,3.718
			c2.034,0.005,3.718-1.672,3.72-3.704C30.214,27.766,28.546,26.094,26.504,26.079z"/>
		<path style="fill:#FFFFFF;" d="M33.391,12.026h-1.344L21.328,22.745c-0.281,0.281-0.663,0.439-1.061,0.439
			s-0.779-0.158-1.061-0.439l-6.032-6.032c-0.586-0.586-0.586-1.535,0-2.121s1.535-0.586,2.121,0l4.972,4.972l7.537-7.538H12.971
			V12.01c-0.697,0-1.388,0-2.086,0c-0.028-0.11-0.056-0.213-0.079-0.317c-0.312-1.414-0.621-2.829-0.937-4.243
			C9.726,6.809,9.334,6.501,8.672,6.5c-1.441-0.001-1.881,0-3.322,0c0,0.71,0,1.421,0,2.132c1.193,0,1.386,0,2.588,0
			c0.029,0.104,0.057,0.186,0.075,0.271c1.072,4.929,2.144,9.858,3.215,14.788c0.168,0.775,0.499,1.043,1.296,1.043
			c6.069,0,12.137,0,18.206,0c0.777,0,1.138-0.281,1.325-1.028c0.845-3.383,1.691-6.766,2.536-10.149
			C34.823,12.629,34.353,12.028,33.391,12.026z"/>
		<path style="fill:#FFFFFF;" d="M33.215,10.858c0.586-0.586,0.586-1.535,0-2.121s-1.535-0.586-2.121,0l-3.289,3.29h4.242
			L33.215,10.858z"/>
	</g>
</g>
</svg>
