<?xml version="1.0" encoding="iso-8859-1"?>
<!-- Generator: Adobe Illustrator 24.0.3, SVG Export Plug-In . SVG Version: 6.00 Build 0)  -->
<svg version="1.1" id="Layer_1" xmlns="http://www.w3.org/2000/svg" xmlns:xlink="http://www.w3.org/1999/xlink" x="0px" y="0px"
	 viewBox="0 0 60 60" style="enable-background:new 0 0 60 60;" xml:space="preserve">
<g>
	<g>
		<circle style="fill:#19CCA3;" cx="30" cy="30" r="30"/>
	</g>
	<g>
		<path style="fill:#FFFFFF;" d="M23.15,40.268c-2.798-0.077-5.163,2.233-5.236,5.111c-0.071,2.805,2.233,5.16,5.114,5.226
			c2.809,0.064,5.148-2.204,5.221-5.063C28.321,42.686,26.062,40.348,23.15,40.268z"/>
		<path style="fill:#FFFFFF;" d="M39.153,40.197c-2.86-0.021-5.203,2.313-5.229,5.211c-0.026,2.845,2.345,5.225,5.214,5.233
			c2.862,0.008,5.233-2.353,5.235-5.213C44.375,42.572,42.027,40.219,39.153,40.197z"/>
		<path style="fill:#FFFFFF;" d="M48.846,20.419h-1.892L31.868,35.505c-0.396,0.396-0.933,0.618-1.493,0.618
			s-1.097-0.223-1.493-0.618l-8.49-8.49c-0.825-0.825-0.825-2.161,0-2.985c0.825-0.825,2.161-0.825,2.985,0l6.997,6.997
			l10.608-10.608H20.108v-0.023c-0.981,0-1.954,0-2.936,0c-0.039-0.155-0.079-0.299-0.111-0.445c-0.44-1.99-0.875-3.982-1.318-5.971
			c-0.201-0.903-0.753-1.337-1.684-1.338c-2.028-0.002-2.648,0-4.675,0.001c0,1,0,2,0,3c1.679,0,1.95,0,3.642,0
			c0.041,0.146,0.08,0.262,0.106,0.382c1.509,6.937,3.017,13.875,4.524,20.812c0.237,1.09,0.703,1.468,1.825,1.468
			c8.541,0,17.082,0,25.623,0c1.093,0,1.602-0.396,1.864-1.447c1.19-4.762,2.379-9.523,3.569-14.284
			C50.862,21.268,50.2,20.421,48.846,20.419z"/>
		<path style="fill:#FFFFFF;" d="M48.599,18.774c0.825-0.825,0.825-2.161,0-2.985c-0.825-0.825-2.161-0.825-2.985,0l-4.629,4.63
			h5.97L48.599,18.774z"/>
	</g>
</g>
</svg>
