<?xml version="1.0" encoding="iso-8859-1"?>
<!-- Generator: Adobe Illustrator 24.0.3, SVG Export Plug-In . SVG Version: 6.00 Build 0)  -->
<svg version="1.1" id="Layer_1" xmlns="http://www.w3.org/2000/svg" xmlns:xlink="http://www.w3.org/1999/xlink" x="0px" y="0px"
	 viewBox="0 0 60 60" style="enable-background:new 0 0 60 60;" xml:space="preserve">
<g>
	<g>
		<circle style="fill:#FF6633;" cx="30" cy="30" r="30"/>
	</g>
	<g>
		<g>
			<path style="fill:#FFFFFF;" d="M25.045,32.85c0.895-0.1,1.751-0.195,2.619-0.292c0.128,0.644,0.4,1.202,0.843,1.662
				c0.212,0.22,0.469,0.398,0.767,0.647c0.025-0.167,0.046-0.244,0.046-0.32c0.002-1.267-0.003-2.534,0.005-3.801
				c0.001-0.202-0.104-0.259-0.264-0.307c-0.75-0.227-1.459-0.54-2.072-1.037c-1.176-0.956-1.602-2.231-1.52-3.7
				c0.078-1.391,0.716-2.464,1.913-3.19c0.468-0.284,0.979-0.46,1.52-0.533c0.417-0.056,0.418-0.046,0.419-0.456
				c0-0.17,0.002-0.34,0.005-0.51c0-0.024,0.012-0.048,0.023-0.087c0.454,0,0.909,0,1.401,0c0,0.235,0.019,0.472-0.005,0.704
				c-0.026,0.252,0.094,0.315,0.311,0.345c0.786,0.11,1.505,0.392,2.115,0.909c0.772,0.654,1.169,1.511,1.351,2.537
				c-0.843,0.108-1.663,0.214-2.507,0.322c-0.191-0.699-0.504-1.296-1.25-1.602c-0.006,0.113-0.015,0.2-0.015,0.288
				c-0.001,1.122,0.013,2.245-0.01,3.367c-0.006,0.301,0.116,0.387,0.369,0.457c0.826,0.229,1.62,0.536,2.331,1.031
				c0.683,0.475,1.128,1.119,1.329,1.918c0.336,1.335,0.237,2.627-0.488,3.828c-0.521,0.863-1.268,1.466-2.221,1.795
				c-0.374,0.129-0.764,0.215-1.15,0.305c-0.147,0.034-0.163,0.118-0.162,0.239c0.003,0.485-0.008,0.97,0.005,1.454
				c0.005,0.191-0.056,0.257-0.244,0.251c-0.323-0.01-0.646-0.007-0.969-0.001c-0.161,0.003-0.225-0.055-0.222-0.224
				c0.009-0.459-0.004-0.918,0.005-1.377c0.004-0.189-0.06-0.268-0.254-0.298c-1.295-0.197-2.391-0.758-3.116-1.877
				c-0.294-0.453-0.488-0.977-0.686-1.484C25.155,33.517,25.121,33.191,25.045,32.85z M30.771,30.997c0,1.32,0,2.622,0,3.925
				c0.779-0.051,1.732-0.817,1.735-2.006C32.509,31.887,31.809,31.181,30.771,30.997z M29.297,24.133
				c-0.664,0.069-1.294,0.883-1.34,1.707c-0.041,0.744,0.599,1.61,1.34,1.784C29.297,26.458,29.297,25.297,29.297,24.133z"/>
			<g>
				<path style="fill:#FFFFFF;" d="M36.548,34.046c0-0.483,0.221-0.873,0.582-1.185c0.333-0.288,0.816-0.348,1.213-0.113
					c0.26,0.154,0.515,0.331,0.729,0.542c1.001,0.987,1.986,1.99,2.978,2.986c0.05,0.05,0.105,0.095,0.194,0.175
					c1.891-3.276,2.294-6.682,1.059-10.231c-1.576-4.531-6.095-8.097-11.744-7.819c-0.024-1.95-0.048-3.903-0.072-5.901
					c0.722,0.026,1.409,0.031,2.094,0.079c1.824,0.128,3.584,0.554,5.278,1.236c1.03,0.415,2.009,0.935,2.945,1.538
					c1.505,0.97,2.828,2.15,3.969,3.521c0.588,0.706,1.106,1.478,1.593,2.259c1.072,1.718,1.764,3.594,2.169,5.574
					c0.241,1.18,0.353,2.376,0.342,3.582c-0.017,1.895-0.312,3.746-0.914,5.542c-0.369,1.101-0.828,2.166-1.43,3.163
					c-0.318,0.528-0.661,1.041-1.002,1.554c-0.094,0.142-0.087,0.229,0.034,0.352c1.048,1.063,2.092,2.13,3.13,3.204
					c0.244,0.253,0.434,0.55,0.474,0.912c0.073,0.668-0.463,1.257-1.192,1.285c-0.784,0.03-11.474,0.009-11.67,0
					c-0.423-0.02-0.758-0.376-0.758-0.794C36.549,43.855,36.547,35.656,36.548,34.046z"/>
				<path style="fill:#FFFFFF;" d="M28.463,41.59c0.025,1.968,0.05,3.917,0.075,5.91c-0.673-0.015-1.294-0.005-1.913-0.046
					c-1.604-0.107-3.17-0.424-4.688-0.955c-1.174-0.411-2.3-0.933-3.362-1.584c-0.938-0.575-1.807-1.238-2.651-1.947
					c-0.971-0.815-1.745-1.791-2.483-2.801c-1.004-1.374-1.77-2.882-2.328-4.489c-1.287-3.138-0.918-7.427-0.913-7.489
					c0.14-1.521,0.471-2.998,0.99-4.435c0.381-1.053,0.863-2.057,1.426-3.022c0.248-0.425,0.537-0.828,0.823-1.23
					c0.115-0.162,0.131-0.262-0.024-0.42c-1.042-1.058-2.072-2.128-3.105-3.196c-0.302-0.312-0.522-0.666-0.479-1.122
					c0.059-0.625,0.645-1.093,1.337-1.09c2.697,0.011,10.31,0.056,11.419,0.046c0.522-0.005,0.881,0.425,0.876,0.876
					c-0.024,2.079-0.054,9.64-0.052,11.342c0,0.561-0.215,1.006-0.675,1.311c-0.394,0.261-0.814,0.18-1.193-0.046
					c-0.24-0.143-0.461-0.331-0.66-0.529c-0.983-0.984-1.956-1.978-2.933-2.969c-0.156-0.158-0.177-0.147-0.294,0.049
					c-0.503,0.845-0.886,1.74-1.165,2.683c-0.464,1.57-0.593,3.167-0.402,4.79c0.144,1.224,0.473,2.398,0.99,3.515
					c0.336,0.725,0.743,1.408,1.217,2.056c0.637,0.872,1.387,1.63,2.224,2.301c1.004,0.804,2.124,1.41,3.339,1.835
					c1.492,0.521,3.027,0.735,4.605,0.657C28.476,41.591,28.489,41.603,28.463,41.59z"/>
			</g>
		</g>
	</g>
</g>
</svg>
