<?xml version="1.0" encoding="iso-8859-1"?>
<!-- Generator: Adobe Illustrator 24.0.3, SVG Export Plug-In . SVG Version: 6.00 Build 0)  -->
<svg version="1.1" id="Layer_1" xmlns="http://www.w3.org/2000/svg" xmlns:xlink="http://www.w3.org/1999/xlink" x="0px" y="0px"
	 viewBox="0 0 60 60" style="enable-background:new 0 0 60 60;" xml:space="preserve">
<g>
	<g>
		<circle style="fill:#FF6633;" cx="30" cy="30" r="30"/>
	</g>
	<g>
		<g>
			<path style="fill:#FFFFFF;" d="M38.101,40.507c-2.844-0.021-5.173,2.3-5.199,5.181c-0.026,2.829,2.332,5.195,5.184,5.203
				c2.846,0.008,5.203-2.34,5.205-5.183C43.293,42.868,40.958,40.528,38.101,40.507z"/>
			<path style="fill:#FFFFFF;" d="M22.189,40.578c-2.781-0.076-5.134,2.22-5.206,5.082c-0.071,2.789,2.22,5.131,5.085,5.196
				c2.793,0.064,5.119-2.191,5.191-5.034C27.331,42.981,25.084,40.657,22.189,40.578z"/>
			<path style="fill:#FFFFFF;" d="M47.738,20.842H35.349v3.233h4.131c0.467,0,0.889,0.28,1.07,0.711
				c0.181,0.43,0.086,0.928-0.24,1.262l-8.618,8.81c-0.218,0.224-0.518,0.349-0.83,0.349c-0.007,0-0.013,0-0.02,0
				c-0.319-0.006-0.621-0.142-0.837-0.377l-7.892-8.626c-0.311-0.34-0.391-0.831-0.206-1.252c0.186-0.421,0.602-0.693,1.063-0.693
				h3.441v-3.418h-7.247v-0.023c-0.976,0-1.943,0-2.92,0c-0.039-0.154-0.079-0.297-0.111-0.443c-0.437-1.979-0.87-3.959-1.311-5.937
				c-0.2-0.898-0.748-1.329-1.674-1.33c-2.016-0.002-2.633,0-4.649,0.001c0,0.994,0,1.989,0,2.983c1.669,0,1.939,0,3.621,0
				c0.041,0.145,0.08,0.261,0.105,0.379c1.5,6.898,3,13.795,4.498,20.693c0.236,1.084,0.699,1.459,1.814,1.459
				c8.492,0,16.984,0,25.476,0c1.087,0,1.593-0.393,1.854-1.439c1.183-4.734,2.366-9.468,3.549-14.203
				C49.743,21.686,49.085,20.844,47.738,20.842z"/>
			<path style="fill:#FFFFFF;" d="M35.349,16.4c0-0.641-0.52-1.161-1.161-1.161h-6.616c-0.641,0-1.161,0.52-1.161,1.161v4.441h8.938
				V16.4z"/>
		</g>
	</g>
</g>
</svg>
