<?xml version="1.0" encoding="iso-8859-1"?>
<!-- Generator: Adobe Illustrator 24.0.3, SVG Export Plug-In . SVG Version: 6.00 Build 0)  -->
<svg version="1.1" id="Layer_1" xmlns="http://www.w3.org/2000/svg" xmlns:xlink="http://www.w3.org/1999/xlink" x="0px" y="0px"
	 viewBox="0 0 60 60" style="enable-background:new 0 0 60 60;" xml:space="preserve">
<g>
	<g>
		<circle style="fill:#19CCA3;" cx="30" cy="30" r="30"/>
	</g>
	<g>
		<path style="fill:#FFFFFF;" d="M25.983,42.751c-0.146-0.137-0.278-0.173-0.475-0.111c-0.793,0.25-1.588,0.495-2.39,0.715
			c-0.8,0.22-1.589,0.166-2.336-0.212c-0.284-0.144-0.545-0.332-0.83-0.509c-0.025,0.045-0.058,0.085-0.073,0.131
			c-1,3.086-2.001,6.171-2.988,9.26c-0.046,0.143-0.02,0.389,0.074,0.476c0.108,0.099,0.347,0.134,0.5,0.092
			c1.122-0.308,2.237-0.643,3.355-0.969c0.521-0.152,0.617-0.117,0.953,0.315c0.702,0.904,1.401,1.811,2.117,2.703
			c0.112,0.139,0.309,0.284,0.471,0.29c0.243,0.009,0.336-0.231,0.406-0.45c0.253-0.803,0.513-1.604,0.772-2.405
			c0.766-2.375,1.526-4.751,2.306-7.121c0.097-0.296,0.045-0.466-0.183-0.665C27.088,43.794,26.536,43.272,25.983,42.751z"/>
		<path style="fill:#FFFFFF;" d="M43.107,51.904c-0.629-1.939-1.26-3.878-1.888-5.817c-0.371-1.146-0.74-2.294-1.125-3.487
			c-0.118,0.083-0.196,0.133-0.269,0.189c-0.892,0.677-1.885,0.845-2.952,0.557c-0.783-0.212-1.556-0.458-2.33-0.702
			c-0.201-0.064-0.345-0.046-0.505,0.105c-0.59,0.558-1.19,1.105-1.795,1.647c-0.126,0.113-0.166,0.212-0.113,0.376
			c1.054,3.255,2.101,6.513,3.163,9.766c0.05,0.152,0.218,0.345,0.355,0.367c0.138,0.022,0.353-0.108,0.455-0.234
			c0.737-0.916,1.455-1.848,2.178-2.776c0.298-0.383,0.421-0.425,0.881-0.291c1.148,0.335,2.295,0.672,3.444,1.003
			c0.395,0.114,0.653-0.154,0.544-0.552C43.138,52.003,43.123,51.953,43.107,51.904z"/>
		<path style="fill:#FFFFFF;" d="M48.253,27.423c-0.714-0.974-1.427-1.949-2.138-2.925c-0.405-0.555-0.4-0.713,0.001-1.277
			c0.719-1.009,1.436-2.019,2.148-3.032c0.285-0.405,0.211-0.713-0.216-0.958c-0.099-0.057-0.203-0.106-0.304-0.16
			c-1.064-0.571-2.128-1.141-3.19-1.715c-0.336-0.182-0.47-0.427-0.414-0.762c0.211-1.27,0.422-2.541,0.643-3.81
			c0.113-0.649-0.093-0.916-0.756-0.939c-1.227-0.043-2.453-0.087-3.68-0.129c-0.506-0.017-0.708-0.164-0.851-0.657
			c-0.352-1.208-0.697-2.418-1.048-3.627c-0.175-0.602-0.444-0.733-1.02-0.488c-1.111,0.473-2.219,0.95-3.327,1.429
			c-0.626,0.271-0.832,0.222-1.279-0.283c-0.802-0.904-1.607-1.804-2.417-2.7c-0.393-0.435-0.709-0.431-1.094,0.008
			c-0.825,0.938-1.647,1.879-2.47,2.82c-0.374,0.428-0.559,0.476-1.091,0.258c-1.078-0.442-2.156-0.886-3.233-1.33
			c-0.849-0.349-1.036-0.254-1.275,0.632c-0.309,1.144-0.627,2.286-0.937,3.43c-0.092,0.34-0.275,0.588-0.647,0.627
			c-0.331,0.035-0.664,0.048-0.996,0.067c-1.006,0.06-2.013,0.112-3.019,0.182c-0.523,0.036-0.718,0.305-0.625,0.812
			c0.23,1.257,0.46,2.514,0.693,3.77c0.088,0.475-0.006,0.691-0.426,0.924c-1.073,0.597-2.147,1.194-3.221,1.79
			c-0.675,0.374-0.725,0.617-0.263,1.248c0.707,0.966,1.414,1.932,2.117,2.902c0.35,0.483,0.35,0.659,0.006,1.148
			c-0.708,1.004-1.421,2.004-2.129,3.008c-0.374,0.53-0.302,0.808,0.273,1.116c1.11,0.595,2.22,1.191,3.329,1.787
			c0.361,0.194,0.513,0.443,0.459,0.769c-0.109,0.656-0.225,1.311-0.335,1.966c-0.119,0.707-0.233,1.414-0.335,2.03
			c-0.009,0.492,0.183,0.72,0.553,0.739c1.298,0.064,2.596,0.128,3.895,0.185c0.571,0.025,0.719,0.129,0.881,0.685
			c0.352,1.208,0.701,2.417,1.053,3.625c0.151,0.517,0.452,0.665,0.941,0.456c1.177-0.502,2.352-1.011,3.529-1.513
			c0.484-0.206,0.696-0.153,1.046,0.237c0.856,0.953,1.71,1.908,2.57,2.856c0.336,0.371,0.64,0.366,0.982,0.006
			c0.064-0.068,0.124-0.141,0.185-0.212c0.78-0.895,1.556-1.793,2.341-2.684c0.391-0.444,0.554-0.474,1.093-0.253
			c1.145,0.471,2.289,0.944,3.435,1.414c0.58,0.238,0.847,0.102,1.01-0.497c0.331-1.214,0.663-2.427,1-3.64
			c0.127-0.457,0.336-0.634,0.792-0.659c1.266-0.07,2.533-0.135,3.8-0.195c0.548-0.026,0.792-0.323,0.693-0.862
			c-0.229-1.247-0.455-2.494-0.685-3.74c-0.093-0.505-0.014-0.697,0.434-0.947c1.091-0.609,2.184-1.213,3.278-1.815
			C48.58,28.23,48.641,27.952,48.253,27.423z M39.778,22.365c-1.045,0.908-2.106,1.797-3.161,2.693
			c-0.359,0.305-0.738,0.591-1.067,0.925c-0.119,0.121-0.203,0.377-0.165,0.539c0.403,1.735,0.839,3.462,1.256,5.193
			c0.214,0.889-0.254,1.567-1.091,1.635c-0.255-0.112-0.527-0.196-0.762-0.34c-1.447-0.889-2.894-1.778-4.321-2.697
			c-0.36-0.232-0.616-0.2-0.96,0.02c-1.43,0.915-2.881,1.797-4.319,2.7c-0.48,0.301-0.955,0.379-1.434,0.034
			c-0.471-0.339-0.521-0.813-0.391-1.34c0.423-1.716,0.833-3.434,1.265-5.148c0.074-0.295,0.007-0.476-0.22-0.665
			c-1.337-1.115-2.648-2.263-4-3.358c-0.829-0.671-0.623-1.711,0.055-2.027c0.227-0.106,0.491-0.155,0.743-0.177
			c0.851-0.075,1.704-0.128,2.557-0.187c0.895-0.061,1.793-0.099,2.684-0.195c0.166-0.018,0.375-0.238,0.449-0.413
			c0.642-1.525,1.258-3.061,1.882-4.593c0.048-0.119,0.098-0.237,0.147-0.356c0.206-0.5,0.577-0.787,1.118-0.778
			c0.525,0.009,0.867,0.312,1.062,0.793c0.652,1.613,1.318,3.221,1.951,4.841c0.153,0.393,0.364,0.52,0.784,0.541
			c1.365,0.07,2.726,0.199,4.089,0.306c0.412,0.032,0.824,0.058,1.235,0.097c0.499,0.047,0.79,0.347,0.953,0.802
			C40.285,21.682,40.12,22.067,39.778,22.365z"/>
	</g>
</g>
</svg>
